<svg width="34" height="50" viewBox="0 0 34 50" fill="none" xmlns="http://www.w3.org/2000/svg">
<g clip-path="url(#clip0_8001_1597)">
<path d="M1.96387 6.05239V10.0878C1.96387 21.3035 1.98504 29.0492 8.4801 35.5702C10.9819 38.0832 17.0898 42.2006 17.0898 42.2006V2.31177C10.7369 2.31177 4.38401 5.16205 1.96387 6.05239Z" fill="#66BB6A"/>
<path d="M32.2162 6.00073C29.191 5.05874 23.4432 2.31177 17.0903 2.31177V42.1975C17.0903 42.1975 23.2254 38.0832 25.7302 35.5671C32.2374 29.0309 32.2162 22.1665 32.2162 11.5828V6.00073Z" fill="#388E3C"/>
<path d="M33.5318 6.04712H0.799316V8.75155H33.5318V6.04712Z" fill="url(#paint0_linear_8001_1597)"/>
<path fill-rule="evenodd" clip-rule="evenodd" d="M25.6218 28.3696C24.5344 27.3086 23.2519 26.4579 21.8373 25.8693C20.3494 25.2503 18.7606 24.9401 17.1655 24.9482C16.4001 24.952 15.6333 25.0291 14.8755 25.1806C12.5775 25.6397 10.4635 26.7617 8.7915 28.408C9.10115 28.889 9.44859 29.3589 9.83843 29.8191C10.3386 29.3036 10.8933 28.8394 11.495 28.4355C13.1746 27.3082 15.1464 26.7013 17.1655 26.6894C17.1857 26.6892 17.206 26.6892 17.2262 26.6892V26.6922C19.9607 26.6954 22.5822 27.7877 24.516 29.7296C24.5311 29.7447 24.5461 29.7599 24.561 29.7751C24.9577 29.3119 25.3096 28.8443 25.6218 28.3696ZM23.2593 31.1264C22.466 30.3114 21.5133 29.6615 20.455 29.2212C19.4075 28.7853 18.2886 28.5682 17.1655 28.5763C16.6356 28.5801 16.1048 28.6341 15.5802 28.7389C13.9435 29.0659 12.4402 29.8731 11.2602 31.0583C11.2215 31.0971 11.1833 31.1363 11.1454 31.1759C11.5071 31.5039 11.9485 31.8645 12.4263 32.2333C12.7396 31.9184 13.0843 31.6336 13.4564 31.3839C14.5554 30.6462 15.8446 30.2473 17.1655 30.2355C17.1857 30.2353 17.206 30.2352 17.2262 30.2352C19.0043 30.2376 20.7098 30.94 21.9774 32.1901C22.4588 31.8179 22.9011 31.455 23.2593 31.1264ZM20.5027 33.2799C19.6328 32.499 18.4847 32.0243 17.2262 32.0243C17.2059 32.0243 17.1857 32.0244 17.1655 32.0247C15.9075 32.04 14.7631 32.5296 13.9015 33.3238C15.5671 34.5117 17.1655 35.5332 17.1655 35.5332V32.0247L17.1655 35.5311C17.1655 35.5311 18.8096 34.4859 20.5027 33.2799Z" fill="#FAFAFA"/>
<path d="M16.9909 22.0758C19.7443 22.0758 21.9764 19.8338 21.9764 17.0681C21.9764 14.3023 19.7443 12.0603 16.9909 12.0603C14.2375 12.0603 12.0054 14.3023 12.0054 17.0681C12.0054 19.8338 14.2375 22.0758 16.9909 22.0758Z" fill="#FAFAFA"/>
<path d="M32.2161 5.86481V2.76535C32.2161 1.65015 30.6823 0.0913086 29.3119 0.0913086H4.61733C3.24995 0.0913086 1.96729 1.65015 1.96729 2.76535V5.86481H32.2191H32.2161Z" fill="#E0E0E0"/>
<path d="M5.69751 4.2323C6.18871 4.2323 6.58691 3.83233 6.58691 3.33893C6.58691 2.84553 6.18871 2.44556 5.69751 2.44556C5.2063 2.44556 4.80811 2.84553 4.80811 3.33893C4.80811 3.83233 5.2063 4.2323 5.69751 4.2323Z" fill="white"/>
<path d="M8.95239 4.2323C9.44359 4.2323 9.84179 3.83233 9.84179 3.33893C9.84179 2.84553 9.44359 2.44556 8.95239 2.44556C8.46119 2.44556 8.06299 2.84553 8.06299 3.33893C8.06299 3.83233 8.46119 4.2323 8.95239 4.2323Z" fill="white"/>
</g>
<defs>
<linearGradient id="paint0_linear_8001_1597" x1="17.1655" y1="5.6217" x2="17.1655" y2="7.85514" gradientUnits="userSpaceOnUse">
<stop stop-color="#263238" stop-opacity="0.35"/>
<stop offset="0.42" stop-color="#263238" stop-opacity="0.15"/>
<stop offset="0.89" stop-color="#263238" stop-opacity="0.02"/>
<stop offset="1" stop-color="#263238" stop-opacity="0"/>
</linearGradient>
<clipPath id="clip0_8001_1597">
<rect width="32.7324" height="49.0987" fill="white" transform="translate(0.799316 0.072998)"/>
</clipPath>
</defs>
</svg>
